<svg xmlns="http://www.w3.org/2000/svg" width="400" height="440.5" viewBox="0 0 400 440.5">
  <path fill-rule="evenodd" d="m312 1.5-.8 6.6c-5.9 37.8-22.8 68.3-57 102.8a694.8 694.8 0 0 1-41.4 38c-50.2 44.2-66.8 64-74.7 88.8-2.4 7.7-4.9 21.8-3.9 21.8a921 921 0 0 1 47.4-44.3c42.5-38 61.7-57.3 80.2-80.3 5.7-7 9.4-12.2 14.7-20A201.4 201.4 0 0 0 312.3 16c.6-8.7.7-15.5.2-15.5-.3 0-.5.3-.5 1m5.5 7.3c-1.3 57-25.1 106.5-77.3 160.5-13.3 13.7-26.3 26-55.3 52.3-32.1 29-50.4 47.7-62 63.2-20 26.5-33.3 63-34.2 94.5-.2 5.4-.2 6.3.2 6.2.2 0 3.5-3.3 7.2-7.3l6.9-7.2-.2-1.4c-3.5-30.7 19.5-81.8 44.6-98.8 8.7-6 15.5-8 38.4-11.2 32.8-4.8 56.7-13.2 76.7-27 7-4.9 7-5 1.5-3.9-9.1 2-23 3.5-29.8 3.4-1.7 0-.8-.4 1.7-.8 12.4-2.2 27.8-6.9 40.6-12.4l5-2.1 3.4-3.7c11.6-12.7 21-28.4 27.6-45.8 1.7-4.6 1.7-4.5-1.8-2.5-9 5-29.9 14-31.5 13.3-.2 0 1.7-1 4-2.4 11.4-6 23.5-14 33.1-21.8 1.8-1.4 6.4-23.5 7.9-37.7l.6-5.7c.1-1.5-.3-1.6-1.4-.5-1.9 2.1-9.2 8-13.1 10.6-5.6 3.7-5.5 3.5.1-2.2 5.3-5.5 9.5-10.1 13.1-14.6l2-2.3.1-4.1c1.3-25.7-1.4-61.8-7-95.1-.6-3.3-1-1.4-1.1 6.5m-208.6 58c-.3 0-.4 1-.3 3v2.7l3.5.2c11 .6 17.7 6.7 20 18 2 9.3 2 7.8 2 82 0 49.8 0 67.1.2 67 .2 0 .8-1.3 1.3-2.9 5.6-16.4 15.3-30.7 33.8-50l5.4-5.6V141c.2-26.1.3-41 .5-42.2l.5-3.4c1.8-14.2 9-21.9 21-22.5l3.5-.2v-3l-.2-2.9h-45.4l-45.8.1m145.8 175a168.5 168.5 0 0 1-32 13.8l-4.5 1.6 3.2 4.3c9.9 12.5 12.1 15.4 31 40a1244.7 1244.7 0 0 0 30.8 38.4c17.2 21 29 29.2 44.3 30.8 1.8.1 12.6.3 26.8.3H378v-3l-.1-3-4.1-1c-16-3.4-29.4-14.2-53.1-42.4l-7-8.4-8-10a71235 71235 0 0 0-20.4-26c-8-10-17.6-22.3-21.3-27.1-8.3-10.5-7.2-9.5-9.3-8.3M170.4 266a54 54 0 0 0-34.4 20.5l-2 2.4v24.3c-.2 26.5-.2 27-2 34.2-2.8 10.8-9.8 17.4-18.5 17.4-.8 0-2.2 0-3.2.2l-1.8.2v2.8l.2 2.8h45.8l45.8.2v-5.8l-3.3-.2c-11.6-.8-17.4-6.1-20.4-18.8-1.7-6.9-1.8-10.7-1.8-47.9 0-18.3-.1-33.2-.2-33.2l-4.2.9M84.6 372.3c-29.4 1.9-51.7 27.8-41.2 48 5 9.5 16.5 15.6 34.3 18.2 5.3.8 24.5 1 30.8.3 18.5-2 31-4.3 52-9.6 11-2.8 26.2-7 42.4-11.6 84.9-24.5 110.8-29.9 155.5-32.3 5.9-.3 6.4-.4 6-.8-.7-.6-24.2-.2-36.7.7-33.1 2.5-55.5 6.6-111.4 20.7-48.8 12.2-71.7 17.2-89.3 19.4-34.3 4.3-58 0-67.4-12.4-11-14.4 2.2-34.8 25.5-39.5 1.5-.3 2.8-.7 2.8-1 .1-.3 0-.3-3.3 0m-7.3 16c-8 4.7-7.5 12.8 1 17.6 10.7 6 32.9 5.6 57.2-.8 8.6-2.2 27-8.2 28-9 .8-.8-.7-.6-5.8.7-32 7.8-59.7 8.4-74 1.8-5.2-2.4-7.4-6.2-5.5-9.4 1.1-1.8 1-2-1-.9"/>
</svg>
