<svg xmlns="http://www.w3.org/2000/svg" xmlns:xlink="http://www.w3.org/1999/xlink" style="vertical-align:-.88ex" width="17.585ex" height="3.259ex" viewBox="0 -1024.6 7571.5 1403.3"><defs><path id="a" stroke-width="1" d="M208 74q0-24 46-28 18 0 18-11 0-1-2-13-3-14-6-18t-13-4h-12q-10 0-34 1t-64 1Q70 2 50 0h-8q-7 7-7 11 2 27 13 35h14q70 3 102 50 6 6 181 305t178 303q7 12 24 12h25q6-9 6-10l28-323q28-323 30-326 5-11 65-11 25 0 25-10 0-2-3-14-3-15-5-18t-14-4h-14q-11 0-39 1t-73 1q-94 0-123-2h-12q-6 6-6 9t2 18q4 13 6 16l4 3h20q54 3 64 17l-12 150H283l-34-58q-41-69-41-81zm308 186q0 11-12 156t-14 146l-27-43q-16-27-63-107l-90-152 103-1q103 0 103 1z"/><path id="b" stroke-width="1" d="M184 600q0 24 19 42t44 19q18 0 30-12t13-30q0-23-20-42t-44-20q-15 0-28 10t-14 33zM21 287q0 8 9 31t24 51 44 51 60 22q39 0 65-23t27-62q0-17-14-56t-40-105-42-113q-5-22-5-32 0-25 17-25 9 0 19 3t23 14 27 35 25 59q3 12 5 14t17 2q20 0 20-10 0-8-9-31t-25-51-45-50-62-22q-32 0-59 21T74 74q0 17 5 32t43 114q38 101 44 121t7 39q0 24-17 24h-2q-30 0-55-33t-38-84q-1-1-2-3t-1-3-2-2-3-1-4 0-8 0H27q-6 6-6 9z"/><path id="c" stroke-width="1" d="M297 596q0 31 21 48t43 17q17 0 28-10t14-28q0-28-19-47t-44-19q-18 0-30 10t-13 29zm-9-220q0 29-26 29-22 0-42-12t-35-31-24-37-17-32l-7-14q-2-1-16-1h-14q-6 6-6 8t4 13q21 49 59 92t88 50h8q7 0 12 1 24-1 44-10 25-14 38-31t13-53v-16l-49-199Q267-67 264-75q-18-50-70-89T75-204q-50 0-68 21t-19 46q0 27 19 46t46 20q17 0 29-10t13-31q0-36-32-55 6-1 14-1 34 0 62 28t43 66l11 42q11 43 26 104t32 125 27 111 11 57q0 7-1 11z"/><path id="d" stroke-width="1" d="M56 347q0 13 14 20h637q15-8 15-20 0-11-14-19l-318-1H72q-16 5-16 20zm0-194q0 15 16 20h636q14-10 14-20 0-13-15-20H70q-14 7-14 20z"/><path id="e" stroke-width="1" d="M94 250q0 69 10 131t23 107 37 88 38 67 42 52 33 34 25 21h17q14 0 14-9 0-3-17-21t-41-53-49-86-42-138-17-193 17-192 41-139 49-86 42-53 17-21q0-9-15-9h-16l-28 24q-94 85-137 212T94 250z"/><path id="f" stroke-width="1" d="M84 237v13l14 20h581q15-8 15-20t-15-20H98q-14 7-14 20z"/><path id="g" stroke-width="1" d="M213 578l-13-5q-14-5-40-10t-58-7H83v46h19q47 2 87 15t56 24 28 22q2 3 12 3 9 0 17-6V361l1-300q7-7 12-9t24-4 62-2h26V0h-11q-21 3-159 3-136 0-157-3H88v46h64q16 0 25 1t16 3 8 2 6 5 6 4v517z"/><path id="h" stroke-width="1" d="M60 749l4 1h22l28-24q94-85 137-212t43-264q0-68-10-131T261 12t-37-88-38-67-41-51-32-33-23-19l-4-4H63q-3 0-5 3t-3 9q1 1 11 13Q221-64 221 250T66 725q-10 12-11 13 0 8 5 11z"/><path id="i" stroke-width="1" d="M56 237v13l14 20h299v150l1 150q10 13 19 13 13 0 20-15V270h298q15-8 15-20t-15-20H409V-68q-8-14-18-14h-4q-12 0-18 14v298H70q-14 7-14 20z"/><path id="j" stroke-width="1" d="M289 629q0 6-57 8-24 0-31 1t-7 10q0 1 2 11 1 3 2 7t1 5 2 5 2 3 4 2 5 2 8 0 12 1h30q24 0 45-1h91q12 0 16-5 1-4 37-282l36-279 23 37q24 36 64 100t88 140q175 279 177 281l3 3q2 2 4 3l6 2h136q23 0 29 1 34 0 34-11 0-5-3-17t-3-13q-4-6-37-6-40-1-51-3t-18-11q-3-5-72-283T797 59q0-4 1-5t7-4 17-2 33-2h31q6-9 6-11 0-16-7-30-5-5-16-5-5 0-41 1t-92 1h-92q-31 0-35-1-17 0-17 10 0 2 2 14 4 16 8 18t23 3q27 0 60 3 14 3 19 12 2 4 38 146t71 283 35 141L654 322Q458 10 453 5l-4-2q-5-3-16-3-15 0-18 7-2 4-41 310l-39 307-68-270Q200 88 200 79q6-33 72-33h10q6-5 7-9t-3-18q-4-16-8-18-4-1-11-1h-12q-10 0-34 1t-64 1q-30 0-62-1T58 0Q43 0 39 2t-4 9q0 2 3 14t5 15q2 6 22 6 70 0 89 40 4 6 69 268t66 275z"/></defs><g fill="currentColor" stroke="currentColor" stroke-width="0" transform="scale(1 -1)"><use xlink:href="#a"/><g transform="matrix(.707 0 0 .707 750 -150)"><use xlink:href="#b"/><use x="345" xlink:href="#c"/></g><use x="1664" xlink:href="#d"/><g transform="translate(2720)"><use xlink:href="#e"/><use x="389" xlink:href="#f"/><use x="1168" xlink:href="#g"/><use x="1668" xlink:href="#h"/><g transform="matrix(.707 0 0 .707 2058 477)"><use xlink:href="#b"/><use x="345" xlink:href="#i"/><use x="1124" xlink:href="#c"/></g></g><g transform="translate(5965)"><use xlink:href="#j"/><g transform="matrix(.707 0 0 .707 970 -150)"><use xlink:href="#b"/><use x="345" xlink:href="#c"/></g></g></g></svg>