<svg xmlns="http://www.w3.org/2000/svg" xmlns:xlink="http://www.w3.org/1999/xlink" style="vertical-align:-6.255ex" width="21.949ex" height="13.634ex" viewBox="0 -3177.3 9450.3 5870.3"><defs><path id="a" stroke-width="1" d="M208 74q0-24 46-28 18 0 18-11 0-1-2-13-3-14-6-18t-13-4h-12q-10 0-34 1t-64 1Q70 2 50 0h-8q-7 7-7 11 2 27 13 35h14q70 3 102 50 6 6 181 305t178 303q7 12 24 12h25q6-9 6-10l28-323q28-323 30-326 5-11 65-11 25 0 25-10 0-2-3-14-3-15-5-18t-14-4h-14q-11 0-39 1t-73 1q-94 0-123-2h-12q-6 6-6 9t2 18q4 13 6 16l4 3h20q54 3 64 17l-12 150H283l-34-58q-41-69-41-81zm308 186q0 11-12 156t-14 146l-27-43q-16-27-63-107l-90-152 103-1q103 0 103 1z"/><path id="b" stroke-width="1" d="M213 578l-13-5q-14-5-40-10t-58-7H83v46h19q47 2 87 15t56 24 28 22q2 3 12 3 9 0 17-6V361l1-300q7-7 12-9t24-4 62-2h26V0h-11q-21 3-159 3-136 0-157-3H88v46h64q16 0 25 1t16 3 8 2 6 5 6 4v517z"/><path id="c" stroke-width="1" d="M109 429q-27 0-43 18t-16 44q0 71 53 123t132 52q91 0 152-56t62-145q0-43-20-82t-48-68-80-74q-36-31-100-92l-59-56 76-1q157 0 167 5 7 2 24 89v3h40v-3q-1-3-13-91T421 3V0H50v31q0 7 6 15t30 35q29 32 50 56 9 10 34 37t34 37 29 33 28 34 23 30 21 32 15 29 13 32 7 30 3 33q0 63-34 109t-97 46q-33 0-58-17t-35-33-10-19q0-1 5-1 18 0 37-14t19-46q0-25-16-42t-45-18z"/><path id="f" stroke-width="1" d="M78 250q0 24 17 42t43 18q24 0 42-16t19-43q0-25-17-43t-43-18-43 17-18 43zm447 0q0 24 17 42t43 18q24 0 42-16t19-43q0-25-17-43t-43-18-43 17-18 43zm447 0q0 24 17 42t43 18q24 0 42-16t19-43q0-25-17-43t-43-18-43 17-18 43z"/><path id="e" stroke-width="1" d="M21 287q1 6 3 16t12 38 20 47 33 37 46 17q36 0 60-18t30-34 6-21q0-2 1-2l11 11q61 64 139 64 54 0 87-27t34-79-38-157-38-127q0-26 17-26 6 0 9 1 29 5 52 38t35 80q2 8 20 8 20 0 20-8 0-1-4-15-8-29-22-57t-46-56-69-27q-47 0-68 27t-21 56q0 19 36 120t37 152q0 59-44 59h-5q-86 0-145-101l-7-12-33-134Q156 26 151 16q-13-27-43-27-13 0-21 6T76 7t-2 10q0 13 38 163t40 163q1 5 1 23 0 39-24 39-38 0-63-100-6-20-6-21-2-6-19-6H27q-6 6-6 9z"/><path id="d" stroke-width="1" d="M78 30q0 24 17 42t43 18q24 0 42-16t19-43q0-25-17-43t-43-18-43 17-18 43zm0 410q0 24 17 42t43 18q24 0 42-16t19-43q0-25-17-43t-43-18-43 17-18 43zm0 400q0 24 17 42t43 18q24 0 42-16t19-43q0-25-17-43t-43-18-43 17-18 43z"/></defs><g fill="currentColor" stroke="currentColor" stroke-width="0"><g transform="matrix(1 0 0 -1 153 0)"><g transform="translate(35 2300)"><use xlink:href="#a"/><g transform="matrix(.707 0 0 .707 750 -150)"><use xlink:href="#b"/><use x="500" xlink:href="#b"/></g></g><g transform="translate(35 900)"><use xlink:href="#a"/><g transform="matrix(.707 0 0 .707 750 -150)"><use xlink:href="#b"/><use x="500" xlink:href="#c"/></g></g><use x="675" y="-1001" xlink:href="#d"/><g transform="translate(0 -2401)"><use xlink:href="#a"/><g transform="matrix(.707 0 0 .707 750 -150)"><use xlink:href="#b"/><use x="500" xlink:href="#e"/></g></g></g><g transform="matrix(1 0 0 -1 2782 0)"><g transform="translate(35 2300)"><use xlink:href="#a"/><g transform="matrix(.707 0 0 .707 750 -150)"><use xlink:href="#c"/><use x="500" xlink:href="#b"/></g></g><g transform="translate(35 900)"><use xlink:href="#a"/><g transform="matrix(.707 0 0 .707 750 -150)"><use xlink:href="#c"/><use x="500" xlink:href="#c"/></g></g><use x="675" y="-1001" xlink:href="#d"/><g transform="translate(0 -2401)"><use xlink:href="#a"/><g transform="matrix(.707 0 0 .707 750 -150)"><use xlink:href="#c"/><use x="500" xlink:href="#e"/></g></g></g><g transform="matrix(1 0 0 -1 5411 0)"><use y="2300" xlink:href="#f"/><use y="900" xlink:href="#f"/><use y="-2401" xlink:href="#f"/></g><g transform="matrix(1 0 0 -1 7583 0)"><g transform="translate(35 2300)"><use xlink:href="#a"/><g transform="matrix(.707 0 0 .707 750 -150)"><use xlink:href="#e"/><use x="600" xlink:href="#b"/></g></g><g transform="translate(35 900)"><use xlink:href="#a"/><g transform="matrix(.707 0 0 .707 750 -150)"><use xlink:href="#e"/><use x="600" xlink:href="#c"/></g></g><use x="710" y="-1001" xlink:href="#d"/><g transform="translate(0 -2401)"><use xlink:href="#a"/><g transform="matrix(.707 0 0 .707 750 -150)"><use xlink:href="#e"/><use x="600" xlink:href="#e"/></g></g></g></g></svg>